<?xml version="1.0" encoding="UTF-8" standalone="no"?>
<!DOCTYPE svg PUBLIC "-//W3C//DTD SVG 1.1//EN"
 "http://www.w3.org/Graphics/SVG/1.1/DTD/svg11.dtd">
<!-- Generated by graphviz version 2.43.0 (0)
 -->
<!-- Title: %3 Pages: 1 -->
<svg width="1764pt" height="548pt"
 viewBox="0.00 0.00 1763.50 548.00" xmlns="http://www.w3.org/2000/svg" xmlns:xlink="http://www.w3.org/1999/xlink">
<g id="graph0" class="graph" transform="scale(1 1) rotate(0) translate(4 544)">
<title>%3</title>
<polygon fill="white" stroke="transparent" points="-4,4 -4,-544 1759.5,-544 1759.5,4 -4,4"/>
<!-- [root] google_compute_firewall.rules (expand) -->
<g id="node1" class="node">
<title>[root] google_compute_firewall.rules (expand)</title>
<polygon fill="none" stroke="black" points="233,-324 0,-324 0,-288 233,-288 233,-324"/>
<text text-anchor="middle" x="116.5" y="-302.3" font-family="Times,serif" font-size="14.00">google_compute_firewall.rules</text>
</g>
<!-- [root] google_compute_network.vpc_network (expand) -->
<g id="node3" class="node">
<title>[root] google_compute_network.vpc_network (expand)</title>
<polygon fill="none" stroke="black" points="728.5,-180 436.5,-180 436.5,-144 728.5,-144 728.5,-180"/>
<text text-anchor="middle" x="582.5" y="-158.3" font-family="Times,serif" font-size="14.00">google_compute_network.vpc_network</text>
</g>
<!-- [root] google_compute_firewall.rules (expand)&#45;&gt;[root] google_compute_network.vpc_network (expand) -->
<g id="edge1" class="edge">
<title>[root] google_compute_firewall.rules (expand)&#45;&gt;[root] google_compute_network.vpc_network (expand)</title>
<path fill="none" stroke="black" d="M114.77,-287.74C113.79,-267.41 115.65,-234.1 135.5,-216 157.11,-196.3 306.24,-181.52 426.39,-172.64"/>
<polygon fill="black" stroke="black" points="426.73,-176.12 436.45,-171.9 426.22,-169.14 426.73,-176.12"/>
</g>
<!-- [root] google_compute_instance.private&#45;vm (expand) -->
<g id="node2" class="node">
<title>[root] google_compute_instance.private&#45;vm (expand)</title>
<polygon fill="none" stroke="black" points="673,-396 392,-396 392,-360 673,-360 673,-396"/>
<text text-anchor="middle" x="532.5" y="-374.3" font-family="Times,serif" font-size="14.00">google_compute_instance.private&#45;vm</text>
</g>
<!-- [root] google_compute_subnetwork.management_subnet (expand) -->
<g id="node6" class="node">
<title>[root] google_compute_subnetwork.management_subnet (expand)</title>
<polygon fill="none" stroke="black" points="770.5,-252 394.5,-252 394.5,-216 770.5,-216 770.5,-252"/>
<text text-anchor="middle" x="582.5" y="-230.3" font-family="Times,serif" font-size="14.00">google_compute_subnetwork.management_subnet</text>
</g>
<!-- [root] google_compute_instance.private&#45;vm (expand)&#45;&gt;[root] google_compute_subnetwork.management_subnet (expand) -->
<g id="edge2" class="edge">
<title>[root] google_compute_instance.private&#45;vm (expand)&#45;&gt;[root] google_compute_subnetwork.management_subnet (expand)</title>
<path fill="none" stroke="black" d="M538.53,-359.87C547.13,-335.46 562.98,-290.43 573.12,-261.64"/>
<polygon fill="black" stroke="black" points="576.43,-262.78 576.45,-252.19 569.82,-260.46 576.43,-262.78"/>
</g>
<!-- [root] google_service_account.omar_service_account (expand) -->
<g id="node12" class="node">
<title>[root] google_service_account.omar_service_account (expand)</title>
<polygon fill="none" stroke="black" points="1385,-324 1040,-324 1040,-288 1385,-288 1385,-324"/>
<text text-anchor="middle" x="1212.5" y="-302.3" font-family="Times,serif" font-size="14.00">google_service_account.omar_service_account</text>
</g>
<!-- [root] google_compute_instance.private&#45;vm (expand)&#45;&gt;[root] google_service_account.omar_service_account (expand) -->
<g id="edge3" class="edge">
<title>[root] google_compute_instance.private&#45;vm (expand)&#45;&gt;[root] google_service_account.omar_service_account (expand)</title>
<path fill="none" stroke="black" d="M673.02,-361.02C676.21,-360.67 679.37,-360.33 682.5,-360 797.96,-347.68 927.67,-334.7 1029.87,-324.66"/>
<polygon fill="black" stroke="black" points="1030.37,-328.13 1039.98,-323.67 1029.69,-321.16 1030.37,-328.13"/>
</g>
<!-- [root] provider[&quot;registry.terraform.io/hashicorp/google&quot;] -->
<g id="node13" class="node">
<title>[root] provider[&quot;registry.terraform.io/hashicorp/google&quot;]</title>
<polygon fill="none" stroke="black" points="876.5,-108 532.97,-90 876.5,-72 1220.03,-90 876.5,-108"/>
<text text-anchor="middle" x="876.5" y="-86.3" font-family="Times,serif" font-size="14.00">provider[&quot;registry.terraform.io/hashicorp/google&quot;]</text>
</g>
<!-- [root] google_compute_network.vpc_network (expand)&#45;&gt;[root] provider[&quot;registry.terraform.io/hashicorp/google&quot;] -->
<g id="edge4" class="edge">
<title>[root] google_compute_network.vpc_network (expand)&#45;&gt;[root] provider[&quot;registry.terraform.io/hashicorp/google&quot;]</title>
<path fill="none" stroke="black" d="M654.04,-143.97C700.76,-132.84 761.42,-118.4 807.59,-107.41"/>
<polygon fill="black" stroke="black" points="808.6,-110.77 817.51,-105.04 806.97,-103.96 808.6,-110.77"/>
</g>
<!-- [root] google_compute_router.router (expand) -->
<g id="node4" class="node">
<title>[root] google_compute_router.router (expand)</title>
<polygon fill="none" stroke="black" points="376.5,-252 144.5,-252 144.5,-216 376.5,-216 376.5,-252"/>
<text text-anchor="middle" x="260.5" y="-230.3" font-family="Times,serif" font-size="14.00">google_compute_router.router</text>
</g>
<!-- [root] google_compute_router.router (expand)&#45;&gt;[root] google_compute_network.vpc_network (expand) -->
<g id="edge5" class="edge">
<title>[root] google_compute_router.router (expand)&#45;&gt;[root] google_compute_network.vpc_network (expand)</title>
<path fill="none" stroke="black" d="M338.86,-215.97C385.79,-205.76 445.59,-192.76 494.19,-182.2"/>
<polygon fill="black" stroke="black" points="495.04,-185.59 504.07,-180.05 493.55,-178.75 495.04,-185.59"/>
</g>
<!-- [root] google_compute_router_nat.nat (expand) -->
<g id="node5" class="node">
<title>[root] google_compute_router_nat.nat (expand)</title>
<polygon fill="none" stroke="black" points="493.5,-324 251.5,-324 251.5,-288 493.5,-288 493.5,-324"/>
<text text-anchor="middle" x="372.5" y="-302.3" font-family="Times,serif" font-size="14.00">google_compute_router_nat.nat</text>
</g>
<!-- [root] google_compute_router_nat.nat (expand)&#45;&gt;[root] google_compute_router.router (expand) -->
<g id="edge6" class="edge">
<title>[root] google_compute_router_nat.nat (expand)&#45;&gt;[root] google_compute_router.router (expand)</title>
<path fill="none" stroke="black" d="M345.1,-287.88C330.59,-278.81 312.58,-267.55 296.91,-257.76"/>
<polygon fill="black" stroke="black" points="298.34,-254.52 288,-252.19 294.63,-260.46 298.34,-254.52"/>
</g>
<!-- [root] google_compute_router_nat.nat (expand)&#45;&gt;[root] google_compute_subnetwork.management_subnet (expand) -->
<g id="edge7" class="edge">
<title>[root] google_compute_router_nat.nat (expand)&#45;&gt;[root] google_compute_subnetwork.management_subnet (expand)</title>
<path fill="none" stroke="black" d="M423.6,-287.97C453.07,-278.14 490.31,-265.73 521.33,-255.39"/>
<polygon fill="black" stroke="black" points="522.79,-258.59 531.17,-252.11 520.57,-251.95 522.79,-258.59"/>
</g>
<!-- [root] google_compute_subnetwork.management_subnet (expand)&#45;&gt;[root] google_compute_network.vpc_network (expand) -->
<g id="edge8" class="edge">
<title>[root] google_compute_subnetwork.management_subnet (expand)&#45;&gt;[root] google_compute_network.vpc_network (expand)</title>
<path fill="none" stroke="black" d="M582.5,-215.7C582.5,-207.98 582.5,-198.71 582.5,-190.11"/>
<polygon fill="black" stroke="black" points="586,-190.1 582.5,-180.1 579,-190.1 586,-190.1"/>
</g>
<!-- [root] google_compute_subnetwork.restricted_subnet (expand) -->
<g id="node7" class="node">
<title>[root] google_compute_subnetwork.restricted_subnet (expand)</title>
<polygon fill="none" stroke="black" points="1142,-252 789,-252 789,-216 1142,-216 1142,-252"/>
<text text-anchor="middle" x="965.5" y="-230.3" font-family="Times,serif" font-size="14.00">google_compute_subnetwork.restricted_subnet</text>
</g>
<!-- [root] google_compute_subnetwork.restricted_subnet (expand)&#45;&gt;[root] google_compute_network.vpc_network (expand) -->
<g id="edge9" class="edge">
<title>[root] google_compute_subnetwork.restricted_subnet (expand)&#45;&gt;[root] google_compute_network.vpc_network (expand)</title>
<path fill="none" stroke="black" d="M872.3,-215.97C815.89,-205.66 743.86,-192.49 685.73,-181.87"/>
<polygon fill="black" stroke="black" points="686.25,-178.41 675.79,-180.05 685,-185.29 686.25,-178.41"/>
</g>
<!-- [root] google_container_cluster.my_cluster (expand) -->
<g id="node8" class="node">
<title>[root] google_container_cluster.my_cluster (expand)</title>
<polygon fill="none" stroke="black" points="1022,-324 747,-324 747,-288 1022,-288 1022,-324"/>
<text text-anchor="middle" x="884.5" y="-302.3" font-family="Times,serif" font-size="14.00">google_container_cluster.my_cluster</text>
</g>
<!-- [root] google_container_cluster.my_cluster (expand)&#45;&gt;[root] google_compute_subnetwork.management_subnet (expand) -->
<g id="edge10" class="edge">
<title>[root] google_container_cluster.my_cluster (expand)&#45;&gt;[root] google_compute_subnetwork.management_subnet (expand)</title>
<path fill="none" stroke="black" d="M811.01,-287.97C767.17,-277.8 711.38,-264.87 665.9,-254.33"/>
<polygon fill="black" stroke="black" points="666.59,-250.9 656.06,-252.05 665.01,-257.72 666.59,-250.9"/>
</g>
<!-- [root] google_container_cluster.my_cluster (expand)&#45;&gt;[root] google_compute_subnetwork.restricted_subnet (expand) -->
<g id="edge11" class="edge">
<title>[root] google_container_cluster.my_cluster (expand)&#45;&gt;[root] google_compute_subnetwork.restricted_subnet (expand)</title>
<path fill="none" stroke="black" d="M904.52,-287.7C914.63,-278.97 927.04,-268.24 938.02,-258.75"/>
<polygon fill="black" stroke="black" points="940.43,-261.29 945.71,-252.1 935.85,-255.99 940.43,-261.29"/>
</g>
<!-- [root] google_container_node_pool.primary_preemptible_nodes (expand) -->
<g id="node9" class="node">
<title>[root] google_container_node_pool.primary_preemptible_nodes (expand)</title>
<polygon fill="none" stroke="black" points="1111.5,-396 691.5,-396 691.5,-360 1111.5,-360 1111.5,-396"/>
<text text-anchor="middle" x="901.5" y="-374.3" font-family="Times,serif" font-size="14.00">google_container_node_pool.primary_preemptible_nodes</text>
</g>
<!-- [root] google_container_node_pool.primary_preemptible_nodes (expand)&#45;&gt;[root] google_container_cluster.my_cluster (expand) -->
<g id="edge12" class="edge">
<title>[root] google_container_node_pool.primary_preemptible_nodes (expand)&#45;&gt;[root] google_container_cluster.my_cluster (expand)</title>
<path fill="none" stroke="black" d="M897.3,-359.7C895.4,-351.9 893.12,-342.51 891.02,-333.83"/>
<polygon fill="black" stroke="black" points="894.42,-333 888.65,-324.1 887.61,-334.65 894.42,-333"/>
</g>
<!-- [root] google_container_node_pool.primary_preemptible_nodes (expand)&#45;&gt;[root] google_service_account.omar_service_account (expand) -->
<g id="edge13" class="edge">
<title>[root] google_container_node_pool.primary_preemptible_nodes (expand)&#45;&gt;[root] google_service_account.omar_service_account (expand)</title>
<path fill="none" stroke="black" d="M977.18,-359.97C1022.42,-349.78 1080.02,-336.82 1126.91,-326.26"/>
<polygon fill="black" stroke="black" points="1127.76,-329.66 1136.75,-324.05 1126.22,-322.83 1127.76,-329.66"/>
</g>
<!-- [root] google_project_iam_binding.project_iam (expand) -->
<g id="node10" class="node">
<title>[root] google_project_iam_binding.project_iam (expand)</title>
<polygon fill="none" stroke="black" points="1431.5,-396 1129.5,-396 1129.5,-360 1431.5,-360 1431.5,-396"/>
<text text-anchor="middle" x="1280.5" y="-374.3" font-family="Times,serif" font-size="14.00">google_project_iam_binding.project_iam</text>
</g>
<!-- [root] google_project_iam_binding.project_iam (expand)&#45;&gt;[root] google_service_account.omar_service_account (expand) -->
<g id="edge14" class="edge">
<title>[root] google_project_iam_binding.project_iam (expand)&#45;&gt;[root] google_service_account.omar_service_account (expand)</title>
<path fill="none" stroke="black" d="M1263.69,-359.7C1255.37,-351.14 1245.19,-340.66 1236.11,-331.3"/>
<polygon fill="black" stroke="black" points="1238.59,-328.84 1229.12,-324.1 1233.57,-333.72 1238.59,-328.84"/>
</g>
<!-- [root] google_project_iam_binding.storage_iam (expand) -->
<g id="node11" class="node">
<title>[root] google_project_iam_binding.storage_iam (expand)</title>
<polygon fill="none" stroke="black" points="1755.5,-396 1449.5,-396 1449.5,-360 1755.5,-360 1755.5,-396"/>
<text text-anchor="middle" x="1602.5" y="-374.3" font-family="Times,serif" font-size="14.00">google_project_iam_binding.storage_iam</text>
</g>
<!-- [root] google_project_iam_binding.storage_iam (expand)&#45;&gt;[root] google_service_account.omar_service_account (expand) -->
<g id="edge15" class="edge">
<title>[root] google_project_iam_binding.storage_iam (expand)&#45;&gt;[root] google_service_account.omar_service_account (expand)</title>
<path fill="none" stroke="black" d="M1507.59,-359.97C1450.15,-349.66 1376.81,-336.49 1317.62,-325.87"/>
<polygon fill="black" stroke="black" points="1317.95,-322.37 1307.49,-324.05 1316.72,-329.26 1317.95,-322.37"/>
</g>
<!-- [root] google_service_account.omar_service_account (expand)&#45;&gt;[root] provider[&quot;registry.terraform.io/hashicorp/google&quot;] -->
<g id="edge16" class="edge">
<title>[root] google_service_account.omar_service_account (expand)&#45;&gt;[root] provider[&quot;registry.terraform.io/hashicorp/google&quot;]</title>
<path fill="none" stroke="black" d="M1204.17,-287.86C1193.9,-268.26 1174.79,-236.26 1150.5,-216 1086.79,-162.86 996.8,-127.58 937.58,-108.42"/>
<polygon fill="black" stroke="black" points="938.57,-105.07 927.98,-105.38 936.45,-111.74 938.57,-105.07"/>
</g>
<!-- [root] var.my&#45;project&#45;id -->
<g id="node14" class="node">
<title>[root] var.my&#45;project&#45;id</title>
<polygon fill="none" stroke="black" points="867,-36 736,-36 736,0 873,0 873,-30 867,-36"/>
<polyline fill="none" stroke="black" points="867,-36 867,-30 "/>
<polyline fill="none" stroke="black" points="873,-30 867,-30 "/>
<text text-anchor="middle" x="804.5" y="-14.3" font-family="Times,serif" font-size="14.00">var.my&#45;project&#45;id</text>
</g>
<!-- [root] provider[&quot;registry.terraform.io/hashicorp/google&quot;]&#45;&gt;[root] var.my&#45;project&#45;id -->
<g id="edge23" class="edge">
<title>[root] provider[&quot;registry.terraform.io/hashicorp/google&quot;]&#45;&gt;[root] var.my&#45;project&#45;id</title>
<path fill="none" stroke="black" d="M859.8,-72.76C850.8,-64.01 839.51,-53.03 829.48,-43.28"/>
<polygon fill="black" stroke="black" points="831.72,-40.59 822.11,-36.12 826.84,-45.6 831.72,-40.59"/>
</g>
<!-- [root] var.my_region -->
<g id="node15" class="node">
<title>[root] var.my_region</title>
<polygon fill="none" stroke="black" points="1002,-36 891,-36 891,0 1008,0 1008,-30 1002,-36"/>
<polyline fill="none" stroke="black" points="1002,-36 1002,-30 "/>
<polyline fill="none" stroke="black" points="1008,-30 1002,-30 "/>
<text text-anchor="middle" x="949.5" y="-14.3" font-family="Times,serif" font-size="14.00">var.my_region</text>
</g>
<!-- [root] provider[&quot;registry.terraform.io/hashicorp/google&quot;]&#45;&gt;[root] var.my_region -->
<g id="edge24" class="edge">
<title>[root] provider[&quot;registry.terraform.io/hashicorp/google&quot;]&#45;&gt;[root] var.my_region</title>
<path fill="none" stroke="black" d="M893.43,-72.76C902.56,-64.01 914.01,-53.03 924.18,-43.28"/>
<polygon fill="black" stroke="black" points="926.85,-45.57 931.64,-36.12 922,-40.52 926.85,-45.57"/>
</g>
<!-- [root] provider[&quot;registry.terraform.io/hashicorp/google&quot;] (close) -->
<g id="node16" class="node">
<title>[root] provider[&quot;registry.terraform.io/hashicorp/google&quot;] (close)</title>
<ellipse fill="none" stroke="black" cx="716.5" cy="-450" rx="304.65" ry="18"/>
<text text-anchor="middle" x="716.5" y="-446.3" font-family="Times,serif" font-size="14.00">[root] provider[&quot;registry.terraform.io/hashicorp/google&quot;] (close)</text>
</g>
<!-- [root] provider[&quot;registry.terraform.io/hashicorp/google&quot;] (close)&#45;&gt;[root] google_compute_firewall.rules (expand) -->
<g id="edge17" class="edge">
<title>[root] provider[&quot;registry.terraform.io/hashicorp/google&quot;] (close)&#45;&gt;[root] google_compute_firewall.rules (expand)</title>
<path fill="none" stroke="black" d="M574.37,-434.01C509.75,-425.56 432.66,-413.19 364.5,-396 294.02,-378.23 215.48,-348.23 166.05,-328.03"/>
<polygon fill="black" stroke="black" points="167.14,-324.69 156.56,-324.12 164.47,-331.16 167.14,-324.69"/>
</g>
<!-- [root] provider[&quot;registry.terraform.io/hashicorp/google&quot;] (close)&#45;&gt;[root] google_compute_instance.private&#45;vm (expand) -->
<g id="edge18" class="edge">
<title>[root] provider[&quot;registry.terraform.io/hashicorp/google&quot;] (close)&#45;&gt;[root] google_compute_instance.private&#45;vm (expand)</title>
<path fill="none" stroke="black" d="M671.96,-432.05C646.27,-422.28 613.79,-409.92 586.63,-399.59"/>
<polygon fill="black" stroke="black" points="587.86,-396.32 577.27,-396.03 585.37,-402.86 587.86,-396.32"/>
</g>
<!-- [root] provider[&quot;registry.terraform.io/hashicorp/google&quot;] (close)&#45;&gt;[root] google_compute_router_nat.nat (expand) -->
<g id="edge19" class="edge">
<title>[root] provider[&quot;registry.terraform.io/hashicorp/google&quot;] (close)&#45;&gt;[root] google_compute_router_nat.nat (expand)</title>
<path fill="none" stroke="black" d="M511,-436.65C453.81,-428.92 401.97,-416.38 382.5,-396 367.11,-379.9 365.81,-353.95 367.66,-334.21"/>
<polygon fill="black" stroke="black" points="371.13,-334.62 368.89,-324.27 364.19,-333.76 371.13,-334.62"/>
</g>
<!-- [root] provider[&quot;registry.terraform.io/hashicorp/google&quot;] (close)&#45;&gt;[root] google_container_node_pool.primary_preemptible_nodes (expand) -->
<g id="edge20" class="edge">
<title>[root] provider[&quot;registry.terraform.io/hashicorp/google&quot;] (close)&#45;&gt;[root] google_container_node_pool.primary_preemptible_nodes (expand)</title>
<path fill="none" stroke="black" d="M761.28,-432.05C787.11,-422.28 819.77,-409.92 847.07,-399.59"/>
<polygon fill="black" stroke="black" points="848.37,-402.84 856.49,-396.03 845.9,-396.3 848.37,-402.84"/>
</g>
<!-- [root] provider[&quot;registry.terraform.io/hashicorp/google&quot;] (close)&#45;&gt;[root] google_project_iam_binding.project_iam (expand) -->
<g id="edge21" class="edge">
<title>[root] provider[&quot;registry.terraform.io/hashicorp/google&quot;] (close)&#45;&gt;[root] google_project_iam_binding.project_iam (expand)</title>
<path fill="none" stroke="black" d="M840.97,-433.55C927.27,-422.84 1042.55,-408.53 1133.39,-397.26"/>
<polygon fill="black" stroke="black" points="1134.01,-400.71 1143.5,-396 1133.15,-393.76 1134.01,-400.71"/>
</g>
<!-- [root] provider[&quot;registry.terraform.io/hashicorp/google&quot;] (close)&#45;&gt;[root] google_project_iam_binding.storage_iam (expand) -->
<g id="edge22" class="edge">
<title>[root] provider[&quot;registry.terraform.io/hashicorp/google&quot;] (close)&#45;&gt;[root] google_project_iam_binding.storage_iam (expand)</title>
<path fill="none" stroke="black" d="M913.68,-436.25C1056.71,-426.6 1255.08,-412.38 1439.3,-396.09"/>
<polygon fill="black" stroke="black" points="1439.8,-399.56 1449.46,-395.19 1439.18,-392.59 1439.8,-399.56"/>
</g>
<!-- [root] root -->
<g id="node17" class="node">
<title>[root] root</title>
<ellipse fill="none" stroke="black" cx="716.5" cy="-522" rx="58.49" ry="18"/>
<text text-anchor="middle" x="716.5" y="-518.3" font-family="Times,serif" font-size="14.00">[root] root</text>
</g>
<!-- [root] root&#45;&gt;[root] provider[&quot;registry.terraform.io/hashicorp/google&quot;] (close) -->
<g id="edge25" class="edge">
<title>[root] root&#45;&gt;[root] provider[&quot;registry.terraform.io/hashicorp/google&quot;] (close)</title>
<path fill="none" stroke="black" d="M716.5,-503.7C716.5,-495.98 716.5,-486.71 716.5,-478.11"/>
<polygon fill="black" stroke="black" points="720,-478.1 716.5,-468.1 713,-478.1 720,-478.1"/>
</g>
</g>
</svg>
